# xmcd
# 
# Track frame offsets:
#     150
#     12443
#     23447
#     35754
#     48103
#     61714
#     73990
#     87078
#     98622
#     108400
#     116640
#     127602
#     138870
#     150089
#     163132
# 
# Disc length: 2310
# 
# Revision: 1
# Processed by: cddbd v1.5.2PL0 Copyright (c) Steve Scherf et al.
# Submitted via: fre:ac v1.0.27
# 
DISCID=ad09040f
DTITLE=Ruth Brown - The Definitive Soul Collection - CD2
DYEAR=2007
DGENRE=Soul
TTITLE0=Mambo Baby
TTITLE1=Somebody Touched Me
TTITLE2=Bye Bye Young Man
TTITLE3=As Long As I'm Moving
TTITLE4=I Can See Everybody's Baby
TTITLE5=It's Love Baby (24 Hours Of The Day)
TTITLE6=I Want To Do More
TTITLE7=Sweet Baby Of Mine
TTITLE8=Lucky Lips
TTITLE9=This Little Girl's Gone Rockin'
TTITLE10=Why Me
TTITLE11=Jack O' Diamonds
TTITLE12=I Can't Hear A Word You Say
TTITLE13=I Don't Know
TTITLE14=Don't Deceive Me
EXTD=
EXTT0=
EXTT1=
EXTT2=
EXTT3=
EXTT4=
EXTT5=
EXTT6=
EXTT7=
EXTT8=
EXTT9=
EXTT10=
EXTT11=
EXTT12=
EXTT13=
EXTT14=
PLAYORDER=
